<svg viewBox="0 0 994 306" xmlns="http://www.w3.org/2000/svg" role="img" aria-label="B. Priority 모델 — LGBM 회귀 (3e5092d)">

  <defs>
    <marker id="ah" viewBox="0 0 10 10" refX="9" refY="5" markerWidth="7" markerHeight="7" orient="auto-start-reverse">
      <path d="M0,0 L10,5 L0,10 z" fill="var(--color-text-secondary,#57606a)"/>
    </marker>
  </defs>


  <style>
    svg{--acc-src:#3b6db5;--acc-src-bg:#eaf1fb;--acc-mine:#2e9e6b;--acc-mine-bg:#e8f6ef;
        --ink:var(--color-text-primary,#1f2328);--ink2:var(--color-text-secondary,#57606a);
        --card:var(--color-background-primary,#ffffff);--line:var(--color-border-secondary,#d0d7de);}
    @media (prefers-color-scheme:dark){svg{--acc-src-bg:#16263d;--acc-mine-bg:#10301f;--card:#0d1117;--line:#30363d;}}
    text{font-family:var(--font-sans,system-ui);fill:var(--ink);}
    .h{font-size:16px;font-weight:500;}
    .t{font-size:12.5px;font-weight:500;}
    .s{font-size:11px;fill:var(--ink2);}
    .box{fill:var(--card);stroke:var(--line);stroke-width:1.2;}
    .src{fill:var(--acc-src-bg);stroke:var(--acc-src);stroke-width:1.2;}
    .mine{fill:var(--acc-mine-bg);stroke:var(--acc-mine);stroke-width:1.2;}
    .edge{stroke:var(--ink2);stroke-width:1.5;fill:none;marker-end:url(#ah);}
  </style>

<text x="20" y="30" class="h">B. Priority 모델 — LGBM 회귀 (3e5092d)</text>
<path class="edge" d="M190,95.0 L214,95.0"/>
<path class="edge" d="M105.0,126 L105.0,149.0 L301.0,149.0 L301.0,170"/>
<path class="edge" d="M386,95.0 L410,95.0"/>
<path class="edge" d="M582,95.0 L606,95.0"/>
<path class="edge" d="M301.0,203.0 L301.0,149.0 L693.0,149.0 L693.0,95.0"/>
<path class="edge" d="M693.0,203.0 L693.0,149.0 L693.0,149.0 L693.0,95.0"/>
<path class="edge" d="M778,95.0 L802,95.0"/>
<rect class="box" x="20" y="64" width="170" height="62" rx="8"/>
<text x="105.0" y="89" class="t" text-anchor="middle">mock 300행</text>
<text x="105.0" y="107" class="s" text-anchor="middle">라벨 0/33/66/100</text>
<rect class="box" x="216" y="64" width="170" height="62" rx="8"/>
<text x="301.0" y="89" class="t" text-anchor="middle">train 196</text>
<text x="301.0" y="107" class="s" text-anchor="middle">양성 95</text>
<rect class="box" x="216" y="172" width="170" height="62" rx="8"/>
<text x="301.0" y="197" class="t" text-anchor="middle">holdout 104</text>
<text x="301.0" y="215" class="s" text-anchor="middle">양성 R=44</text>
<rect class="mine" x="412" y="64" width="170" height="62" rx="8"/>
<text x="497.0" y="89" class="t" text-anchor="middle">LGBMRegressor</text>
<text x="497.0" y="107" class="s" text-anchor="middle">7피처·정규화</text>
<rect class="mine" x="608" y="64" width="170" height="62" rx="8"/>
<text x="693.0" y="89" class="t" text-anchor="middle">evaluate</text>
<text x="693.0" y="107" class="s" text-anchor="middle">precision@k·NDCG</text>
<rect class="src" x="608" y="172" width="170" height="62" rx="8"/>
<text x="693.0" y="197" class="t" text-anchor="middle">rule v2</text>
<text x="693.0" y="215" class="s" text-anchor="middle">baseline</text>
<rect class="mine" x="804" y="64" width="170" height="62" rx="8"/>
<text x="889.0" y="89" class="t" text-anchor="middle">model.joblib</text>
<text x="889.0" y="107" class="s" text-anchor="middle">+ metadata</text>
<text x="20" y="297" class="s">precision@10/20/44 = 1.00 · NDCG = 1.00 · rule v2 동등 이상 → 채택</text>
</svg>